<?xml version="1.0" encoding="iso-8859-1"?>
<!-- Generator: Adobe Illustrator 19.0.0, SVG Export Plug-In . SVG Version: 6.00 Build 0)  -->
<svg version="1.1" id="Capa_1" xmlns="http://www.w3.org/2000/svg" xmlns:xlink="http://www.w3.org/1999/xlink" x="0px" y="0px"
	 viewBox="0 0 468.293 468.293" style="enable-background:new 0 0 468.293 468.293;" xml:space="preserve">
<g>
	<path style="fill:#27A2DB;" d="M155.698,443.893c0.591,6.571-1.846,13.067-6.496,17.792c-4.578,4.503-10.262,6.571-15.873,6.571
		c-10.04,0-19.785-6.644-22.222-17.792l-14.47-67.624l51.457-33.591L155.698,443.893z"/>
	<path style="fill:#27A2DB;" d="M119.08,320.236l-33.59,51.456l-67.624-14.543C6.644,354.786,0,345.041,0,335.001
		c0-5.611,2.141-11.296,6.644-15.873c4.725-4.651,11.222-7.087,17.792-6.497L119.08,320.236z"/>
	<path style="fill:#27A2DB;" d="M433.134,389.705l-20.671,20.598c-7.161,7.235-19.268,5.167-23.698-3.987l-86.523-178.51
		l84.456-84.53l50.423,232.846C438.228,380.994,436.677,386.162,433.134,389.705z"/>
	<path style="fill:#27A2DB;" d="M325.053,81.632l-84.53,84.456L62.013,79.565c-9.154-4.429-11.221-16.537-3.986-23.698
		l20.597-20.671c3.544-3.544,8.712-5.094,13.584-3.987L325.053,81.632z"/>
</g>
<path style="fill:#EBF0F3;" d="M463.329,5.001l-391.57,391.57c-1.993-2.067-2.879-5.241-1.476-8.49
	c10.335-24.584,23.329-48.06,38.611-70.134L265.329,104.37c8.416-12.107,17.94-23.403,28.201-33.738
	c42.081-42.007,98.114-67.624,156.953-70.577c4.872-0.222,9.449,1.624,12.772,4.946C463.329,5.001,463.329,5.001,463.329,5.001z"/>
<path style="fill:#E1E6E9;" d="M468.275,17.847c-3.691,73.235-42.524,142.188-104.389,185.08L150.308,359.511
	c-22,15.208-45.476,28.127-70.06,38.537c-3.248,1.403-6.423,0.517-8.49-1.477l391.57-391.57
	C466.651,8.397,468.496,12.974,468.275,17.847z"/>
<g>
	<path style="fill:#64798A;" d="M102.115,385.577c-15.757,15.757-33.541,29.488-53.211,40.908c-3.6,2.09-9.127-3.437-7.036-7.036
		c22.848-39.331,54.788-71.271,94.119-94.119c3.599-2.091,9.126,3.436,7.036,7.036C131.603,352.036,117.872,369.82,102.115,385.577z
		"/>
	<path style="fill:#64798A;" d="M407.538,112.988c-1.336-1.336-2.162-3.181-2.162-5.22c0-11.975-4.662-23.229-13.127-31.694
		s-19.721-13.13-31.694-13.127c-4.078,0-7.382-3.303-7.382-7.382c-0.003-4.076,3.303-7.382,7.382-7.382
		c15.916,0,30.878,6.194,42.134,17.45c11.254,11.254,17.45,26.218,17.45,42.134c0,4.078-3.303,7.382-7.382,7.382
		C410.72,115.149,408.874,114.323,407.538,112.988z"/>
</g>
<g>
</g>
<g>
</g>
<g>
</g>
<g>
</g>
<g>
</g>
<g>
</g>
<g>
</g>
<g>
</g>
<g>
</g>
<g>
</g>
<g>
</g>
<g>
</g>
<g>
</g>
<g>
</g>
<g>
</g>
</svg>
